<svg width="500" height="500" viewBox="0 0 500 500" fill="none" xmlns="http://www.w3.org/2000/svg">
<path d="M225.6 95.1854C225.6 115.974 252.421 124.327 264.224 107.214L269.752 99.2002C275.685 91.4262 283.555 84.0391 293.891 79.5537C303.314 75.3963 313.325 74 322.8 74H377.652C403.865 74 418.959 103.789 403.456 124.926L325.827 230.766C323.044 234.56 323.17 239.726 325.806 243.624L411.931 375.944C425.787 397.231 410.511 425.4 385.112 425.4H328.4C323.268 425.4 317.958 425.055 312.787 424.07C307.397 423.023 302.132 421.257 297.282 418.671C292.912 416.34 288.731 413.357 284.987 409.613C281.985 406.611 279.388 403.166 277.038 399.641L269.68 388.336C256.661 368.336 225.6 377.555 225.6 401.419C225.6 414.664 214.863 425.4 201.618 425.4H130C112.327 425.4 98 411.073 98 393.4V106C98 88.3269 112.327 74 130 74H204.414C216.115 74 225.6 83.485 225.6 95.1854Z" fill="#57534D"/>
</svg>
